<?xml version="1.0" encoding="UTF-8"?>
<!DOCTYPE svg PUBLIC "-//W3C//DTD SVG 1.1//EN" "http://www.w3.org/Graphics/SVG/1.1/DTD/svg11.dtd">
<svg xmlns="http://www.w3.org/2000/svg" width="24" height="24" viewBox="70 60 230 230" fill="#00c300">
  <path fill-rule="evenodd" clip-rule="evenodd" d="M108.103 208.954h27.952c3.976 0 7.228-3.253 7.228-7.229v-.603c0-3.976-3.252-7.228-7.228-7.228h-20.121v-45.779c0-3.976-3.252-7.228-7.228-7.228h-.603c-3.976 0-7.228 3.252-7.228 7.228v53.609c0 3.977 3.252 7.23 7.228 7.23zm173.205-33.603v-.603c0-3.976-3.253-7.228-7.229-7.228h-20.12v-11.445h20.12c3.976 0 7.229-3.252 7.229-7.228v-.603c0-3.976-3.253-7.228-7.229-7.228h-27.952c-3.976 0-7.228 3.252-7.228 7.228v53.609c0 3.976 3.252 7.229 7.228 7.229h27.952c3.976 0 7.229-3.253 7.229-7.229v-.603c0-3.976-3.253-7.228-7.229-7.228h-20.12v-11.445h20.12c3.976.002 7.229-3.251 7.229-7.226zm-53.755 31.448l.002-.003a7.207 7.207 0 0 0 2.09-5.07v-53.609c0-3.976-3.252-7.228-7.229-7.228h-.603c-3.976 0-7.228 3.252-7.228 7.228v31.469l-26.126-35.042c-1.248-2.179-3.598-3.655-6.276-3.655h-.603c-3.976 0-7.229 3.252-7.229 7.228v53.609c0 3.976 3.252 7.229 7.229 7.229h.603c3.976 0 7.228-3.253 7.228-7.229v-32.058l26.314 35.941c.162.252.339.494.53.724l.001.002c.723.986 1.712 1.662 2.814 2.075.847.35 1.773.544 2.742.544h.603a7.162 7.162 0 0 0 3.377-.844c.723-.344 1.332-.788 1.761-1.311zm-71.208 2.155h.603c3.976 0 7.228-3.253 7.228-7.229v-53.609c0-3.976-3.252-7.228-7.228-7.228h-.603c-3.976 0-7.229 3.252-7.229 7.228v53.609c0 3.976 3.253 7.229 7.229 7.229z" />
</svg>