<?xml version="1.0" standalone="no"?>
<!DOCTYPE svg PUBLIC "-//W3C//DTD SVG 20010904//EN"
 "http://www.w3.org/TR/2001/REC-SVG-20010904/DTD/svg10.dtd">
<svg version="1.0" xmlns="http://www.w3.org/2000/svg"
 width="1000.000000pt" height="1000.000000pt" viewBox="0 0 1000.000000 1000.000000"
 preserveAspectRatio="xMidYMid meet">
<metadata>
Created by potrace 1.11, written by Peter Selinger 2001-2013
</metadata>
<g transform="translate(0.000000,1000.000000) scale(0.100000,-0.100000)"
fill="#000000" stroke="none">
<path d="M2630 9993 c-25 -2 -110 -12 -190 -24 -1048 -146 -1940 -884 -2285
-1889 -56 -165 -98 -335 -127 -520 l-23 -145 0 -2415 0 -2415 23 -145 c100
-631 369 -1168 807 -1605 436 -436 980 -710 1600 -806 116 -18 200 -22 484
-26 306 -5 343 -4 338 10 -3 8 -562 979 -1242 2156 -679 1177 -1244 2160
-1254 2183 -91 213 -41 468 124 633 118 118 258 178 420 179 188 1 361 -86
471 -235 20 -27 38 -48 40 -46 2 2 40 138 84 303 95 354 122 417 219 513 60
59 127 101 651 403 349 200 611 345 650 358 202 68 435 13 588 -139 63 -62
111 -143 834 -1396 421 -732 775 -1348 786 -1371 39 -77 54 -161 49 -269 -4
-88 -17 -148 -115 -509 -70 -260 -122 -432 -143 -475 -22 -46 -55 -89 -108
-141 -72 -71 -109 -94 -754 -465 -373 -214 -676 -394 -675 -400 2 -6 170 -300
373 -653 l370 -642 1400 3 c1376 3 1402 3 1530 24 206 34 319 61 490 118 429
141 800 369 1120 690 438 437 707 974 807 1605 l23 145 0 2410 c0 2276 -1
2417 -18 2530 -71 469 -218 855 -469 1227 -189 282 -474 567 -756 756 -360
243 -741 392 -1187 464 l-140 22 -2375 2 c-1306 0 -2395 -1 -2420 -3z m2685
-928 c131 -34 252 -114 323 -212 23 -32 141 -229 261 -438 120 -208 223 -381
229 -383 5 -1 128 66 273 150 145 84 289 162 320 175 257 104 567 -4 712 -248
140 -237 105 -524 -87 -714 -61 -60 -109 -92 -349 -229 -153 -88 -276 -165
-275 -171 2 -7 243 -428 537 -937 l534 -924 134 -36 133 -36 197 114 c112 65
226 123 263 135 323 100 661 -91 746 -423 20 -75 21 -195 4 -269 -24 -105 -77
-198 -159 -279 -69 -68 -107 -94 -401 -262 -179 -103 -354 -197 -390 -209 -50
-17 -89 -23 -170 -23 -104 -1 -111 1 -525 112 -242 66 -448 127 -485 144 -47
23 -87 53 -145 112 -79 80 -88 95 -689 1139 -335 581 -611 1057 -614 1057 -3
0 -72 -38 -153 -85 -186 -108 -236 -126 -364 -132 -118 -6 -193 9 -301 62
-233 114 -367 414 -299 670 48 179 141 284 370 417 89 51 150 93 149 101 -1 8
-103 191 -228 407 -259 449 -278 493 -279 640 -1 276 174 501 448 575 68 19
208 18 280 0z"/>
<path d="M3208 4996 c-87 -51 -159 -94 -162 -97 -2 -2 -93 -334 -201 -738
l-197 -733 87 -152 c367 -638 548 -946 556 -946 14 0 1071 610 1090 629 9 9
31 73 49 142 l32 126 -537 932 c-296 512 -543 931 -549 930 -6 0 -82 -42 -168
-93z"/>
</g>
</svg>
