<?xml version="1.0" encoding="UTF-8"?>
<!DOCTYPE svg PUBLIC "-//W3C//DTD SVG 1.1//EN" "http://www.w3.org/Graphics/SVG/1.1/DTD/svg11.dtd">
<svg xmlns="http://www.w3.org/2000/svg"
  xmlns:xlink="http://www.w3.org/1999/xlink" version="1.1" width="24" height="24" viewBox="0 0 24 24">
  <path d="M 17.36 20.2 L 17.36 14.82 L 19.15 14.82 L 19.15 22 L 3 22 L 3 14.82 L 4.8 14.82 L 4.8 20.2 L 17.36 20.2" fill="#BCBBBB"></path>
  <path d="M 6.77 14.32 L 7.14 12.56 L 15.93 14.41 L 15.56 16.17 L 6.77 14.32 M 7.93 10.11 L 8.69 8.5 L 16.83 12.28 L 16.07 13.9 L 7.93 10.11 M 10.19 6.12 L 11.34 4.74 L 18.24 10.5 L 17.09 11.87 L 10.19 6.12 M 14.64 1.87 L 20 9.08 L 18.56 10.15 L 13.2 2.94 L 14.64 1.87 M 6.59 18.41 L 6.59 16.61 L 15.57 16.61 L 15.57 18.41 L 6.59 18.41 Z" fill="#F48024"></path>
</svg>